# xmcd CD database file
#
# Track frame offsets:
#	150
#	13506
#	28413
#	38970
#	49922
#	64710
#	76497
#	91316
#	101886
#	117343
#
# Disc length: 1706 seconds
#
# Revision: 0
# Processed by: cddbd v1.5.2PL0 Copyright (c) Steve Scherf et al.
# Submitted via: CDex 1.70beta2
#
DISCID=8406a80a
DTITLE=Kenny Rogers and The First Edition - Songs Of Love And Heartache
DYEAR=2006
DGENRE=Country
TTITLE0=But You Know I Love You
TTITLE1=Heed The Call
TTITLE2=Ticket To Nowhere
TTITLE3=Always Leavin',Always Gone
TTITLE4=All God Lonely Children
TTITLE5=Elvira
TTITLE6=Church Without A Name
TTITLE7=Trying Just As Hard
TTITLE8=My Washington Woman
TTITLE9=Last Few Threads Of Love
EXTD=YEAR: 2006
EXTT0=
EXTT1=
EXTT2=
EXTT3=
EXTT4=
EXTT5=
EXTT6=
EXTT7=
EXTT8=
EXTT9=
PLAYORDER=
